{"asset":{"version":"2.0","generator":"THREE.GLTFExporter r175"},"scenes":[{"name":"AuxScene","nodes":[11]}],"scene":0,"nodes":[{"mesh":0},{"mesh":1},{"mesh":2},{"mesh":3},{"mesh":4},{"mesh":5},{"mesh":6},{"matrix":[0.06905339660024877,0,-0.06905339660024878,0,0,-0.09765625,0,0,0.06905339660024878,0,0.06905339660024877,0,0,0,0,1],"children":[0,1,2,3,4,5,6]},{"children":[7]},{"matrix":[1,0,0,0,0,1,0,0,0,0,1,0,-35.45539975243638,50.17930809408426,35.179186182499,1],"children":[8]},{"children":[9]},{"children":[10]}],"bufferViews":[{"buffer":0,"byteOffset":0,"byteLength":168480,"target":34962,"byteStride":12},{"buffer":0,"byteOffset":168480,"byteLength":112320,"target":34962,"byteStride":8},{"buffer":0,"byteOffset":280800,"byteLength":168480,"target":34962,"byteStride":12},{"buffer":0,"byteOffset":449280,"byteLength":52416,"target":34962,"byteStride":12},{"buffer":0,"byteOffset":501696,"byteLength":34944,"target":34962,"byteStride":8},{"buffer":0,"byteOffset":536640,"byteLength":52416,"target":34962,"byteStride":12},{"buffer":0,"byteOffset":589056,"byteLength":46656,"target":34962,"byteStride":12},{"buffer":0,"byteOffset":635712,"byteLength":31104,"target":34962,"byteStride":8},{"buffer":0,"byteOffset":666816,"byteLength":46656,"target":34962,"byteStride":12},{"buffer":0,"byteOffset":713472,"byteLength":81216,"target":34962,"byteStride":12},{"buffer":0,"byteOffset":794688,"byteLength":54144,"target":34962,"byteStride":8},{"buffer":0,"byteOffset":848832,"byteLength":81216,"target":34962,"byteStride":12},{"buffer":0,"byteOffset":930048,"byteLength":75456,"target":34962,"byteStride":12},{"buffer":0,"byteOffset":1005504,"byteLength":50304,"target":34962,"byteStride":8},{"buffer":0,"byteOffset":1055808,"byteLength":75456,"target":34962,"byteStride":12},{"buffer":0,"byteOffset":1131264,"byteLength":58176,"target":34962,"byteStride":12},{"buffer":0,"byteOffset":1189440,"byteLength":38784,"target":34962,"byteStride":8},{"buffer":0,"byteOffset":1228224,"byteLength":58176,"target":34962,"byteStride":12},{"buffer":0,"byteOffset":1286400,"byteLength":40176,"target":34962,"byteStride":12},{"buffer":0,"byteOffset":1326576,"byteLength":26784,"target":34962,"byteStride":8},{"buffer":0,"byteOffset":1353360,"byteLength":40176,"target":34962,"byteStride":12}],"buffers":[{"byteLength":1393536,"uri":"data:application/octet-stream;base64,"}],"accessors":[{"bufferView":0,"componentType":5126,"count":14040,"max":[970.4617309570312,969.9733276367188,12.100000381469727],"min":[52.436561584472656,57.69890213012695,-0.6000000238418579],"type":"VEC3"},{"bufferView":1,"componentType":5126,"count":14040,"max":[970.1610107421875,969.6732788085938],"min":[52.736961364746094,-11.100000381469727],"type":"VEC2"},{"bufferView":2,"componentType":5126,"count":14040,"max":[0.999993622303009,0.9998615384101868,1],"min":[-0.999988317489624,-0.9999598264694214,-1],"type":"VEC3"},{"bufferView":3,"componentType":5126,"count":4368,"max":[546.1651000976562,868.9464721679688,12.100000381469727],"min":[321.67279052734375,658.7425537109375,-0.6000000238418579],"type":"VEC3"},{"bufferView":4,"componentType":5126,"count":4368,"max":[868.9464721679688,868.6430053710938],"min":[321.67279052734375,-11.100000381469727],"type":"VEC2"},{"bufferView":5,"componentType":5126,"count":4368,"max":[0.9997000694274902,0.9999998807907104,1],"min":[-0.9960347414016724,-0.9998102188110352,-1],"type":"VEC3"},{"bufferView":6,"componentType":5126,"count":3888,"max":[379.0901794433594,811.2127685546875,12.100000381469727],"min":[267.5332336425781,504.00439453125,-0.6000000238418579],"type":"VEC3"},{"bufferView":7,"componentType":5126,"count":3888,"max":[807.73095703125,810.9110107421875],"min":[267.8345031738281,-11.100000381469727],"type":"VEC2"},{"bufferView":8,"componentType":5126,"count":3888,"max":[0.9998511672019958,0.9950719475746155,1],"min":[-0.9999775290489197,-0.9999173879623413,-1],"type":"VEC3"},{"bufferView":9,"componentType":5126,"count":6768,"max":[806.9415893554688,687.6011352539062,12.100000381469727],"min":[465.0045166015625,283.97698974609375,-0.6000000238418579],"type":"VEC3"},{"bufferView":10,"componentType":5126,"count":6768,"max":[806.6373901367188,687.301025390625],"min":[321.5196228027344,-11.100000381469727],"type":"VEC2"},{"bufferView":11,"componentType":5126,"count":6768,"max":[0.9999672770500183,0.9997726678848267,1],"min":[-0.9999996423721313,-0.9970830082893372,-1],"type":"VEC3"},{"bufferView":12,"componentType":5126,"count":6288,"max":[542.7998046875,653.1659545898438,12.100000381469727],"min":[317.029052734375,197.93214416503906,-0.6000000238418579],"type":"VEC3"},{"bufferView":13,"componentType":5126,"count":6288,"max":[653.1659545898438,652.8511962890625],"min":[210.57847595214844,-11.100000381469727],"type":"VEC2"},{"bufferView":14,"componentType":5126,"count":6288,"max":[0.9999844431877136,0.9999903440475464,1],"min":[-0.9999992847442627,-0.9957102537155151,-1],"type":"VEC3"},{"bufferView":15,"componentType":5126,"count":4848,"max":[347.1993713378906,379.0453186035156,12.100000381469727],"min":[106.53375244140625,246.6634063720703,-0.6000000238418579],"type":"VEC3"},{"bufferView":16,"componentType":5126,"count":4848,"max":[369.83258056640625,378.72564697265625],"min":[106.84046936035156,-11.100000381469727],"type":"VEC2"},{"bufferView":17,"componentType":5126,"count":4848,"max":[0.9901952147483826,0.9976409077644348,1],"min":[-0.9979963302612305,-0.9894694685935974,-1],"type":"VEC3"},{"bufferView":18,"componentType":5126,"count":3348,"max":[655.0182495117188,302.86431884765625,12.100000381469727],"min":[506.0010070800781,134.78981018066406,-0.6000000238418579],"type":"VEC3"},{"bufferView":19,"componentType":5126,"count":3348,"max":[655.0182495117188,302.56280517578125],"min":[153.23838806152344,-11.100000381469727],"type":"VEC2"},{"bufferView":20,"componentType":5126,"count":3348,"max":[0.9997643828392029,0.9998491406440735,1],"min":[-0.9982122182846069,-0.9955117702484131,-1],"type":"VEC3"}],"materials":[{"pbrMetallicRoughness":{"baseColorFactor":[0.6375968739867731,0.6653872982754769,0.7083757798856457,1],"metallicFactor":1,"roughnessFactor":0.2},"doubleSided":true,"extensions":{"KHR_materials_clearcoat":{"clearcoatFactor":0.1,"clearcoatRoughnessFactor":0}}}],"meshes":[{"primitives":[{"mode":4,"attributes":{"POSITION":0,"TEXCOORD_0":1,"NORMAL":2},"material":0}]},{"primitives":[{"mode":4,"attributes":{"POSITION":3,"TEXCOORD_0":4,"NORMAL":5},"material":0}]},{"primitives":[{"mode":4,"attributes":{"POSITION":6,"TEXCOORD_0":7,"NORMAL":8},"material":0}]},{"primitives":[{"mode":4,"attributes":{"POSITION":9,"TEXCOORD_0":10,"NORMAL":11},"material":0}]},{"primitives":[{"mode":4,"attributes":{"POSITION":12,"TEXCOORD_0":13,"NORMAL":14},"material":0}]},{"primitives":[{"mode":4,"attributes":{"POSITION":15,"TEXCOORD_0":16,"NORMAL":17},"material":0}]},{"primitives":[{"mode":4,"attributes":{"POSITION":18,"TEXCOORD_0":19,"NORMAL":20},"material":0}]}],"extensionsUsed":["KHR_materials_clearcoat"]}